<svg id="visual" viewBox="0 0 960 540" width="960" height="540" xmlns="http://www.w3.org/2000/svg" xmlns:xlink="http://www.w3.org/1999/xlink" version="1.1"><rect x="0" y="0" width="960" height="540" fill="#001220"></rect><defs><linearGradient id="grad1_0" x1="43.8%" y1="100%" x2="100%" y2="0%"><stop offset="14.444444444444446%" stop-color="#001220" stop-opacity="1"></stop><stop offset="85.55555555555554%" stop-color="#001220" stop-opacity="1"></stop></linearGradient></defs><defs><linearGradient id="grad2_0" x1="0%" y1="100%" x2="56.3%" y2="0%"><stop offset="14.444444444444446%" stop-color="#001220" stop-opacity="1"></stop><stop offset="85.55555555555554%" stop-color="#001220" stop-opacity="1"></stop></linearGradient></defs><g transform="translate(960, 540)"><path d="M-172 0C-182.7 -38.6 -193.3 -77.3 -179.3 -103.5C-165.2 -129.7 -126.5 -143.5 -92.5 -160.2C-58.5 -176.9 -29.3 -196.4 0 -216L0 0Z" fill="#FBAE3C"></path></g><g transform="translate(0, 0)"><path d="M167 0C182.3 37.3 197.6 74.6 187.1 108C176.5 141.4 140 171 104.5 181C69 191 34.5 181.5 0 172L0 0Z" fill="#FBAE3C"></path></g></svg>