<svg id="visual" viewBox="0 0 960 540" width="960" height="540" xmlns="http://www.w3.org/2000/svg" xmlns:xlink="http://www.w3.org/1999/xlink" version="1.1"><rect width="960" height="540" fill="#41599f"></rect><g><g transform="translate(837 396)"><path d="M10.6 10.5C-6.7 36 -55.1 47.9 -62.1 28.4C-69 8.9 -34.5 -42 -10.3 -47.9C13.9 -53.9 27.8 -14.9 10.6 10.5Z" fill="none" stroke="#fbdba3" stroke-width="20"></path></g><g transform="translate(50 53)"><path d="M42.1 28.9C29.1 46.9 -24.6 46 -38.4 27.6C-52.1 9.2 -26.1 -26.8 0.7 -26.4C27.6 -26 55.1 10.9 42.1 28.9Z" fill="none" stroke="#fbdba3" stroke-width="20"></path></g><g transform="translate(471 168)"><path d="M28.5 18.4C20.1 31 -15.1 30.1 -24.4 17C-33.6 3.9 -16.8 -21.2 0.8 -20.8C18.5 -20.3 36.9 5.9 28.5 18.4Z" fill="none" stroke="#fbdba3" stroke-width="20"></path></g><g transform="translate(97 376)"><path d="M17.6 10.5C7.5 27.7 -26.6 31.4 -33.6 16C-40.5 0.6 -20.3 -33.9 -3.2 -35.7C13.9 -37.5 27.8 -6.7 17.6 10.5Z" fill="none" stroke="#fbdba3" stroke-width="20"></path></g></g></svg>