<svg id="visual" viewBox="0 0 960 540" width="960" height="540" xmlns="http://www.w3.org/2000/svg" xmlns:xlink="http://www.w3.org/1999/xlink" version="1.1"><g stroke-width="1" stroke-linejoin="bevel"><path d="M520.3 269L661 270L544.3 184Z" fill="#277297" stroke="#277297"></path><path d="M661 270L674 219L544.3 184Z" fill="#205a7a" stroke="#205a7a"></path><path d="M520.3 269L644 322L661 270Z" fill="#00101c" stroke="#00101c"></path><path d="M520.3 269L545.3 368L644 322Z" fill="#1d4e6b" stroke="#1d4e6b"></path><path d="M674 219L607 100L544.3 184Z" fill="#112e42" stroke="#112e42"></path><path d="M644 322L741.7 265L661 270Z" fill="#1d4e6b" stroke="#1d4e6b"></path><path d="M661 270L741.7 265L674 219Z" fill="#277297" stroke="#277297"></path><path d="M674 219L774.7 102L607 100Z" fill="#112e42" stroke="#112e42"></path><path d="M415.7 157L434.7 294L520.3 269Z" fill="#00101c" stroke="#00101c"></path><path d="M520.3 269L427.7 330L545.3 368Z" fill="#1d4e6b" stroke="#1d4e6b"></path><path d="M415.7 157L520.3 269L544.3 184Z" fill="#112e42" stroke="#112e42"></path><path d="M741.7 265L763.7 184L674 219Z" fill="#1d4e6b" stroke="#1d4e6b"></path><path d="M434.7 294L427.7 330L520.3 269Z" fill="#00101c" stroke="#00101c"></path><path d="M651 429L725.7 376L644 322Z" fill="#1d4e6b" stroke="#1d4e6b"></path><path d="M644 322L725.7 376L741.7 265Z" fill="#277297" stroke="#277297"></path><path d="M741.7 265L846.3 296L763.7 184Z" fill="#19435d" stroke="#19435d"></path><path d="M609 0L543.3 55L607 100Z" fill="#277297" stroke="#277297"></path><path d="M607 100L543.3 55L544.3 184Z" fill="#081a28" stroke="#081a28"></path><path d="M427.7 116L415.7 157L544.3 184Z" fill="#297ea6" stroke="#297ea6"></path><path d="M434.7 294L329 342L427.7 330Z" fill="#081a28" stroke="#081a28"></path><path d="M509.3 462L651 429L545.3 368Z" fill="#277297" stroke="#277297"></path><path d="M545.3 368L651 429L644 322Z" fill="#19435d" stroke="#19435d"></path><path d="M543.3 55L427.7 116L544.3 184Z" fill="#081a28" stroke="#081a28"></path><path d="M763.7 184L774.7 102L674 219Z" fill="#297ea6" stroke="#297ea6"></path><path d="M427.7 330L509.3 462L545.3 368Z" fill="#205a7a" stroke="#205a7a"></path><path d="M742.7 0L609 0L607 100Z" fill="#1d4e6b" stroke="#1d4e6b"></path><path d="M543.3 55L411.7 0L427.7 116Z" fill="#0c2435" stroke="#0c2435"></path><path d="M651 429L728.7 447L725.7 376Z" fill="#297ea6" stroke="#297ea6"></path><path d="M725.7 376L846.3 296L741.7 265Z" fill="#081a28" stroke="#081a28"></path><path d="M763.7 184L869.3 140L774.7 102Z" fill="#19435d" stroke="#19435d"></path><path d="M630 540L728.7 447L651 429Z" fill="#205a7a" stroke="#205a7a"></path><path d="M609 0L537.3 0L543.3 55Z" fill="#1d4e6b" stroke="#1d4e6b"></path><path d="M311 68L350 155L427.7 116Z" fill="#277297" stroke="#277297"></path><path d="M427.7 116L350 155L415.7 157Z" fill="#00101c" stroke="#00101c"></path><path d="M415.7 157L320 262L434.7 294Z" fill="#1d4e6b" stroke="#1d4e6b"></path><path d="M866.3 336L846.3 296L725.7 376Z" fill="#15384f" stroke="#15384f"></path><path d="M350 155L320 262L415.7 157Z" fill="#112e42" stroke="#112e42"></path><path d="M427.7 330L427.7 466L509.3 462Z" fill="#112e42" stroke="#112e42"></path><path d="M343 465L427.7 466L427.7 330Z" fill="#0c2435" stroke="#0c2435"></path><path d="M320 262L329 342L434.7 294Z" fill="#081a28" stroke="#081a28"></path><path d="M855.3 0L742.7 0L774.7 102Z" fill="#277297" stroke="#277297"></path><path d="M774.7 102L742.7 0L607 100Z" fill="#297ea6" stroke="#297ea6"></path><path d="M877.3 455L866.3 336L725.7 376Z" fill="#081a28" stroke="#081a28"></path><path d="M846.3 296L869.3 140L763.7 184Z" fill="#277297" stroke="#277297"></path><path d="M960 270L869.3 140L846.3 296Z" fill="#1d4e6b" stroke="#1d4e6b"></path><path d="M509.3 540L630 540L509.3 462Z" fill="#15384f" stroke="#15384f"></path><path d="M509.3 462L630 540L651 429Z" fill="#19435d" stroke="#19435d"></path><path d="M728.7 447L877.3 455L725.7 376Z" fill="#19435d" stroke="#19435d"></path><path d="M537.3 0L411.7 0L543.3 55Z" fill="#205a7a" stroke="#205a7a"></path><path d="M446.7 540L509.3 540L509.3 462Z" fill="#15384f" stroke="#15384f"></path><path d="M411.7 0L311 68L427.7 116Z" fill="#297ea6" stroke="#297ea6"></path><path d="M350 155L201.3 167L320 262Z" fill="#1d4e6b" stroke="#1d4e6b"></path><path d="M343 465L446.7 540L427.7 466Z" fill="#246688" stroke="#246688"></path><path d="M427.7 466L446.7 540L509.3 462Z" fill="#0c2435" stroke="#0c2435"></path><path d="M329 342L343 465L427.7 330Z" fill="#15384f" stroke="#15384f"></path><path d="M630 540L744.7 540L728.7 447Z" fill="#15384f" stroke="#15384f"></path><path d="M960 148L879.3 65L869.3 140Z" fill="#19435d" stroke="#19435d"></path><path d="M869.3 140L879.3 65L774.7 102Z" fill="#15384f" stroke="#15384f"></path><path d="M320 262L252.3 350L329 342Z" fill="#19435d" stroke="#19435d"></path><path d="M329 342L248.3 428L343 465Z" fill="#112e42" stroke="#112e42"></path><path d="M194.3 302L252.3 350L320 262Z" fill="#00101c" stroke="#00101c"></path><path d="M855.3 540L877.3 455L728.7 447Z" fill="#205a7a" stroke="#205a7a"></path><path d="M866.3 336L960 270L846.3 296Z" fill="#277297" stroke="#277297"></path><path d="M879.3 65L855.3 0L774.7 102Z" fill="#112e42" stroke="#112e42"></path><path d="M960 380L960 270L866.3 336Z" fill="#205a7a" stroke="#205a7a"></path><path d="M879.3 65L960 0L855.3 0Z" fill="#112e42" stroke="#112e42"></path><path d="M960 270L960 148L869.3 140Z" fill="#19435d" stroke="#19435d"></path><path d="M411.7 0L288 0L311 68Z" fill="#297ea6" stroke="#297ea6"></path><path d="M311 68L201.3 167L350 155Z" fill="#1d4e6b" stroke="#1d4e6b"></path><path d="M252.3 350L248.3 428L329 342Z" fill="#297ea6" stroke="#297ea6"></path><path d="M343 465L312 540L446.7 540Z" fill="#112e42" stroke="#112e42"></path><path d="M877.3 455L960 380L866.3 336Z" fill="#277297" stroke="#277297"></path><path d="M203.3 96L201.3 167L311 68Z" fill="#112e42" stroke="#112e42"></path><path d="M252.3 350L94.7 363L248.3 428Z" fill="#00101c" stroke="#00101c"></path><path d="M744.7 540L855.3 540L728.7 447Z" fill="#1d4e6b" stroke="#1d4e6b"></path><path d="M877.3 455L960 445L960 380Z" fill="#1d4e6b" stroke="#1d4e6b"></path><path d="M201.3 167L194.3 302L320 262Z" fill="#205a7a" stroke="#205a7a"></path><path d="M248.3 428L312 540L343 465Z" fill="#0c2435" stroke="#0c2435"></path><path d="M242.3 0L203.3 96L311 68Z" fill="#081a28" stroke="#081a28"></path><path d="M70.7 183L82.7 309L194.3 302Z" fill="#112e42" stroke="#112e42"></path><path d="M960 148L960 52L879.3 65Z" fill="#205a7a" stroke="#205a7a"></path><path d="M960 540L960 445L877.3 455Z" fill="#297ea6" stroke="#297ea6"></path><path d="M288 0L242.3 0L311 68Z" fill="#246688" stroke="#246688"></path><path d="M960 52L960 0L879.3 65Z" fill="#15384f" stroke="#15384f"></path><path d="M855.3 540L960 540L877.3 455Z" fill="#00101c" stroke="#00101c"></path><path d="M242.3 0L121.7 102L203.3 96Z" fill="#081a28" stroke="#081a28"></path><path d="M203.3 96L121.7 102L201.3 167Z" fill="#1d4e6b" stroke="#1d4e6b"></path><path d="M91.7 441L199.3 540L248.3 428Z" fill="#15384f" stroke="#15384f"></path><path d="M248.3 428L199.3 540L312 540Z" fill="#246688" stroke="#246688"></path><path d="M94.7 363L252.3 350L194.3 302Z" fill="#297ea6" stroke="#297ea6"></path><path d="M82.7 309L94.7 363L194.3 302Z" fill="#081a28" stroke="#081a28"></path><path d="M70.7 183L194.3 302L201.3 167Z" fill="#112e42" stroke="#112e42"></path><path d="M121.7 102L70.7 183L201.3 167Z" fill="#246688" stroke="#246688"></path><path d="M84.7 540L91.7 441L0 540Z" fill="#1d4e6b" stroke="#1d4e6b"></path><path d="M0 415L91.7 441L94.7 363Z" fill="#0c2435" stroke="#0c2435"></path><path d="M94.7 363L91.7 441L248.3 428Z" fill="#00101c" stroke="#00101c"></path><path d="M0 94L0 172L70.7 183Z" fill="#0c2435" stroke="#0c2435"></path><path d="M242.3 0L68.7 0L121.7 102Z" fill="#15384f" stroke="#15384f"></path><path d="M0 370L94.7 363L82.7 309Z" fill="#00101c" stroke="#00101c"></path><path d="M91.7 441L84.7 540L199.3 540Z" fill="#205a7a" stroke="#205a7a"></path><path d="M70.7 183L0 295L82.7 309Z" fill="#00101c" stroke="#00101c"></path><path d="M0 172L0 295L70.7 183Z" fill="#19435d" stroke="#19435d"></path><path d="M0 94L70.7 183L121.7 102Z" fill="#277297" stroke="#277297"></path><path d="M0 295L0 370L82.7 309Z" fill="#112e42" stroke="#112e42"></path><path d="M68.7 0L0 94L121.7 102Z" fill="#15384f" stroke="#15384f"></path><path d="M0 370L0 415L94.7 363Z" fill="#297ea6" stroke="#297ea6"></path><path d="M68.7 0L0 0L0 94Z" fill="#205a7a" stroke="#205a7a"></path><path d="M0 415L0 540L91.7 441Z" fill="#112e42" stroke="#112e42"></path></g></svg>